<?xml version="1.0" encoding="utf-8"?>
<!-- Generator: Adobe Illustrator 26.1.0, SVG Export Plug-In . SVG Version: 6.00 Build 0)  -->
<svg version="1.1" id="Capa_1" xmlns="http://www.w3.org/2000/svg" xmlns:xlink="http://www.w3.org/1999/xlink" x="0px" y="0px"
	 viewBox="0 0 1142 155" style="enable-background:new 0 0 1142 155;" xml:space="preserve">
<path d="M1065.5,107.4V51.2h17.7v42.4h22.1l-5,13.8H1065.5z M1020.1,86.2h12.4c-2.9-9.7-3.8-14.7-3.8-20.6h-4.4
	C1024.2,71.5,1023.1,76.5,1020.1,86.2z M997.2,107.4v-5l15-51.3h29.5l14.7,51.3v5h-17.1c-1.2-3.5-2.1-6.5-2.9-9.4h-19.7l-3.2,9.4
	H997.2z M929.1,107.4V51.2h24.7C967.7,76.8,968,82.1,968,88.6h4.4V51.2H988v56.3h-23.6c-15-26.2-15.3-31.5-15.3-38.6H945v38.6H929.1
	z M887.9,108.9c-16.5,0-25.3-7.7-25.3-20.3V51.2h18v32.7c0,6.8,3,10.3,9.4,10.3s9.4-2.4,9.4-8.2V51.2h16.8v35.1
	C916.1,99.5,905.5,108.9,887.9,108.9z M824.4,7.7v72.1c0,44.7,27.4,71.8,72.1,71.8h240V79.8c0-44.4-27.4-72.1-72.1-72.1H824.4z"/>
<g>
	<g>
		<path d="M23.3,80.6v26.9H7.2V32.9h25.8c17.2,0,27.3,8,27.3,21.8c0,16.9-14.9,25.9-32.5,25.9C26.4,80.7,24.8,80.7,23.3,80.6z
			 M43.9,56.9c0-8.4-5.4-13.3-16.7-13.3h-3.9v25.7c1.9,0.1,3.8,0.2,6,0.2C38.9,69.6,43.9,65.5,43.9,56.9z"/>
		<path d="M83.1,66.8v40.7H67.8V53l11-2.2l3.5,6.6c3.5-2.7,9.5-6.6,15.5-6.6c2.1,0,3.2,0.2,3.8,0.4l-1.8,13.5
			c-1-0.2-3.7-0.4-5.2-0.4C91.1,64.4,86.4,65.3,83.1,66.8z"/>
		<path d="M130.6,109.3c-14.1,0-26.4-7.9-26.4-27.8c0-19.2,10.7-30.7,27.1-30.7s21.2,10.8,21.2,22.9c0,2.4-0.2,6.1-0.5,7.8H119
			c0.7,12.5,8,16.1,15,16.1c5.9,0,11.7-1.3,16.3-3.2l2.4,10C146.9,107.2,139.3,109.3,130.6,109.3z M119.3,72.5h19
			c0-8-3.4-11.9-9.6-11.9C123.2,60.6,120.2,63.4,119.3,72.5z"/>
		<path d="M173.3,107.5l-17.8-53.9l16-2.2l12.7,43.4l12.5-42.2h15.1l-18.6,54.8L173.3,107.5L173.3,107.5z"/>
		<path d="M240.8,109.3c-14.1,0-26.4-7.9-26.4-27.8c0-19.2,10.7-30.7,27-30.7s21.2,10.8,21.2,22.9c0,2.4-0.2,6.1-0.5,7.8h-32.9
			c0.7,12.5,8,16.1,15,16.1c5.9,0,11.7-1.3,16.3-3.2l2.4,10C257.1,107.2,249.6,109.3,240.8,109.3z M229.6,72.5h19
			c0-8-3.4-11.9-9.6-11.9C233.5,60.6,230.5,63.4,229.6,72.5z"/>
		<path d="M287.6,65.1v42.4h-15.4V53l11-2.2l2.9,5.5c5-2.7,11.9-5.5,18-5.5s11,1.9,13.9,6.1c5-2.9,12.5-6.1,19.1-6.1
			c10.1,0,16.8,5.5,16.8,16.6v40.1h-15.4V72.4c0-7.8-3.8-10-8.5-10c-2.8,0-6.7,1.2-9.3,2.6c0.1,0.7,0.1,1.6,0.1,2.4v40.1h-15.4V72.4
			c0-7.8-3.8-10-8.5-10C294.2,62.4,290.2,63.7,287.6,65.1z"/>
		<path d="M389.1,109.3c-14.1,0-26.4-7.9-26.4-27.8c0-19.2,10.7-30.7,27-30.7s21.2,10.8,21.2,22.9c0,2.4-0.2,6.1-0.5,7.8h-32.9
			c0.7,12.5,8,16.1,15,16.1c5.9,0,11.7-1.3,16.3-3.2l2.4,10C405.4,107.2,397.9,109.3,389.1,109.3z M377.9,72.5h19
			c0-8-3.4-11.9-9.6-11.9C381.8,60.6,378.8,63.4,377.9,72.5z"/>
		<path d="M435.9,66.8v40.7h-15.4V53l11-2.2l3.5,6.6c3.5-2.7,9.5-6.6,15.5-6.6c2.1,0,3.2,0.2,3.8,0.4l-1.8,13.5
			c-1-0.2-3.7-0.4-5.2-0.4C443.8,64.4,439.2,65.3,435.9,66.8z"/>
		<path d="M475.9,134.3c-14.6,0-21.7-6.2-21.7-13.8c0-5.6,4.4-9.3,7.8-11.7c1-0.6,2.9-2,4.9-3.2c-4.3-2-6-5-6-8.4
			c0-3.7,3.2-7.6,6.6-10.4c-6.8-2.7-11.2-8.2-11.2-16.1c0-12.1,9.3-20,24.9-20c5,0,9.5,1.2,13,3.4c4.4-1.1,15-3.5,15.1-3.4v12.3
			h-2.3l-6-1c0.7,1.9,1.1,4.1,1.1,6.5c0,12.2-10.1,20-24.4,20c-0.6,0-1.1,0-1.6,0c-1.1,1.1-1.7,2.3-1.7,3.7c0,2,1.8,3.2,6.7,3.7
			L493,97c9,0.9,14.6,3.9,14.6,13.4C507.7,123.3,493.9,134.3,475.9,134.3z M493.7,114.4c0-2.8-2.2-4.8-8.2-5.5l-10-1.2
			c-0.7,0.6-1.7,1.2-2.4,1.8c-2.9,2.4-4.8,4.9-4.8,7.3c0,3.7,3.7,6.6,11.8,6.6C488.2,123.4,493.7,119.2,493.7,114.4z M477.8,59.7
			c-4.9,0-6.9,2.2-6.9,9.4c0,7.7,4.6,10.5,9.6,10.5c4.4,0,6.9-2.4,6.9-9.4C487.4,62.4,482.9,59.7,477.8,59.7z"/>
		<path d="M538.7,109.3c-14.1,0-26.4-7.9-26.4-27.8c0-19.2,10.7-30.7,27-30.7s21.2,10.8,21.2,22.9c0,2.4-0.2,6.1-0.5,7.8h-32.9
			c0.7,12.5,8,16.1,15,16.1c5.8,0,11.7-1.3,16.3-3.2l2.4,10C555.1,107.2,547.5,109.3,538.7,109.3z M527.5,72.5h19
			c0-8-3.4-11.9-9.6-11.9C531.4,60.6,528.4,63.4,527.5,72.5z"/>
		<path d="M585.5,65.1v42.4h-15.3V53l11-2.2l2.9,5.5c5-2.7,11.9-5.5,18-5.5c10.1,0,17.4,5.5,17.4,16.6v40.1h-15.3V72.4
			c0-7.8-4.4-10-9.1-10C592.1,62.4,588.1,63.7,585.5,65.1z"/>
		<path d="M673.4,105.4c-5,2.2-11.8,3.9-18.3,3.9c-14.9,0-26.9-9-26.9-27.4c0-20.2,13.3-31.1,29-31.1c7.5,0,12.8,1.3,15.8,2.8
			l-2.7,11.7c-3-1.5-9.3-2.9-13-2.9c-8.4,0-13.5,4.9-13.5,17.1c0,12.9,7.5,17.9,15.3,17.9c4.5,0,8.9-1,12.5-2.4L673.4,105.4z"/>
		<path d="M688.8,25.1c3,0,10,4.8,10,8.3c0,3.4-6,9.5-9,9.5c-3.2,0-10-4.8-10-8.2S685.6,25.1,688.8,25.1z M696.9,50.7v56.8h-15.3
			V52.9L696.9,50.7z"/>
		<path d="M738.1,103.5c-4.5,2.9-10.5,5.9-15.5,5.9c-9.5,0-16.7-6.1-16.7-15.7c0-10.7,8.5-18,30.7-18.9v-2.3c0-6.8-3.2-9.5-9.1-9.5
			c-5.2,0-11.7,1.8-16.8,3.6l-2.9-10.6c8-2.9,15.6-5.1,24.4-5.1c12.4,0,19.5,6,19.5,18.5v37.8l-10.5,2.2L738.1,103.5z M736.6,95.9
			V84.7c-2.1-0.4-4.6-0.5-6.8-0.5c-6.8,0-10.2,2.6-10.2,7.1c0,4.4,3.3,7.3,7.9,7.3C730,98.6,733.7,97.4,736.6,95.9z"/>
		<path d="M760,105.9l2.8-11.8c6,2.2,12.3,4.1,19.2,4.1c4.4,0,6.6-2.1,6.6-4.9c0-2.7-1.3-5.4-6.6-7.2l-8.5-2.9
			c-7.7-2.7-12.2-6.9-12.2-15c0-10.4,10.5-17.4,22-17.4c8.9,0,15,1.3,18.6,2.6l-2.6,11.7c-5.6-1.9-12.1-3.5-17.1-3.5
			c-4.9,0-7,2.1-7,4.8c0,2.8,1.3,4.8,6.8,6.6l8.2,2.7c8.9,2.9,12.8,8.4,12.8,15.5c0,12.8-13.5,18.3-23.3,18.3
			C770.7,109.3,764.3,107.5,760,105.9z"/>
	</g>
</g>
</svg>
